<svg xmlns="http://www.w3.org/2000/svg" width="512" height="512"><path fill="#f0f0f0" fill-rule="evenodd" d="M226 33.625C158.271 42.78 98.131 82.796 62.889 142.157c-15.475 26.065-25.438 54.963-29.357 85.144-1.968 15.156-1.968 42.242 0 57.398 8.894 68.5 48.793 128.89 108.625 164.412C177.094 469.853 214.492 480 256 480s78.906-10.147 113.843-30.889c52.777-31.333 90.497-82.453 104.491-141.611 7.643-32.312 7.643-70.688 0-103C460.34 145.342 422.62 94.222 369.843 62.889c-26.065-15.475-54.963-25.438-85.144-29.357-14.661-1.903-44.276-1.857-58.699.093m10 12.459C168.562 52.525 106.785 92.49 73.115 151.458c-2.813 4.927-5.115 9.314-5.115 9.75s84.6.792 188 .792 188-.356 188-.792c0-1.356-10-18.381-14.806-25.208-10.603-15.062-26.159-31.882-39.926-43.169C346.792 58.004 290.609 40.869 236 46.084M68 350.792c0 1.346 9.981 18.354 14.794 25.208 11.441 16.295 31.225 36.869 46.415 48.266 28.04 21.039 60.391 34.606 96.291 40.381 15.156 2.438 45.844 2.438 61 0 35.9-5.775 68.251-19.342 96.291-40.381 15.19-11.397 34.974-31.971 46.415-48.266 4.813-6.854 14.794-23.862 14.794-25.208 0-.436-84.6-.792-188-.792s-188 .356-188 .792"/><path fill="#1b1b1b" fill-rule="evenodd" d="M224.5 48.023c-34.948 5.375-66.53 18.68-95.286 40.14-12.719 9.492-32.822 29.775-42.119 42.495C80.885 139.156 68 159.995 68 161.542c0 .252 84.6.458 188 .458s188-.206 188-.458c0-1.547-12.885-22.386-19.095-30.884-9.297-12.72-29.4-33.003-42.119-42.495-29.158-21.76-60.647-34.913-96.286-40.219-17.258-2.569-45.014-2.534-62 .079"/><path fill="#ffa707" fill-rule="evenodd" d="M249.75 45.74c3.438.196 9.063.196 12.5 0 3.438-.195.625-.355-6.25-.355s-9.687.16-6.25.355M68 350.792c0 1.346 9.981 18.354 14.794 25.208 11.441 16.295 31.225 36.869 46.415 48.266 28.04 21.039 60.391 34.606 96.291 40.381 15.156 2.438 45.844 2.438 61 0 35.9-5.775 68.251-19.342 96.291-40.381 15.19-11.397 34.974-31.971 46.415-48.266 4.813-6.854 14.794-23.862 14.794-25.208 0-.436-84.6-.792-188-.792s-188 .356-188 .792"/></svg>